<svg xmlns="http://www.w3.org/2000/svg" viewBox="0 0 860 320"><path fill="#FFF" d="M320 136l-24.3-35.4c-10-14.5-28.3-16.2-40.8-3.8l-38.3 38.3V63.7c0-17.6-11.9-23.9-26.4-13.9L154.8 74c-14.5 10-16.2 28.3-3.8 40.8l38.3 38.3h-71.5c-17.6 0-23.9 11.9-13.9 26.4l24.3 35.4c10 14.5 28.3 16.2 40.8 3.8l38.3-38.3v71.5c0 17.6 11.9 23.9 26.4 13.9l35.4-24.3c14.5-10 16.2-28.3 3.8-40.8l-38.3-38.3H306c17.7.1 23.9-11.8 14-26.4z"/><g fill="#5FB5DB"><path d="M417.8 82.5h-44.3V50.7H370V120h3.5V85.8h44.3V120h3.4V50.7h-3.4zM452.3 121.3c3.7 0 7.2-1 10.4-3 2.6-1.6 4.5-3.9 5.9-6.8 0 .9.1 1.8.2 2.7.1 1 .2 1.9.2 2.9.1 1 .2 1.8.3 2.4l.1.5h3.4l-.1-.8c-.2-1.2-.4-2.7-.5-4.6-.2-1.8-.2-3.6-.2-5.3V89.9c0-5.7-1.5-10-4.6-12.7-3-2.7-7.2-4.1-12.4-4.1-2.6 0-5.2.5-7.9 1.4-2.7 1-5.1 2.4-7.2 4.2l-.5.4 1.9 2.8.6-.5c1.7-1.5 3.7-2.8 5.9-3.7 2.2-.9 4.6-1.4 7.1-1.4 4 0 7.3 1.1 9.8 3.2 2.5 2.1 3.7 5.6 3.7 10.3v2.9h-7c-2.3 0-4.9.2-7.7.5s-5.5 1-8 2.1-4.6 2.7-6.3 4.6c-1.7 2-2.6 4.7-2.6 8 0 2.3.5 4.3 1.4 6 .9 1.7 2.1 3.1 3.6 4.2s3.1 1.9 5 2.4c1.8.5 3.6.8 5.5.8m7.8-4.9c-2.1 1.2-4.7 1.7-7.8 1.7-1.3 0-2.7-.2-4.1-.6-1.4-.4-2.7-.9-3.9-1.7-1.2-.8-2.1-1.8-2.9-3.1-.7-1.3-1.1-2.9-1.1-4.8 0-2.6.7-4.7 2-6.3 1.4-1.6 3.1-2.8 5.3-3.6 2.2-.9 4.6-1.5 7.2-1.7 2.7-.3 5.2-.4 7.6-.4h6.1v3.5c0 2.1-.3 4.3-.7 6.5-.5 2.2-1.4 4.2-2.6 6-1.3 1.8-3 3.3-5.1 4.5M514.8 121.3c3.3 0 6.3-.6 9.1-1.8 2.8-1.2 5.2-2.9 7.2-5.1 2-2.1 3.6-4.7 4.7-7.6 1.1-2.9 1.7-6.1 1.7-9.5 0-3.5-.5-6.7-1.6-9.6-1.1-2.9-2.6-5.5-4.6-7.7-2-2.1-4.4-3.8-7.2-5.1-2.8-1.2-5.9-1.8-9.2-1.8-4.3 0-8.4 1.2-12 3.5-3.1 1.9-5.6 4.7-7.4 8.2V74.5h-3.6V143h3.6v-33.1c.7 1.3 1.5 2.5 2.4 3.6 1.4 1.7 3.1 3.1 4.8 4.2 1.8 1.2 3.7 2 5.8 2.6 2 .7 4.1 1 6.3 1m0-45c2.9 0 5.6.6 8 1.7 2.4 1.1 4.4 2.7 6 4.6 1.7 1.9 2.9 4.2 3.8 6.7.9 2.5 1.3 5.2 1.3 8s-.5 5.5-1.3 8c-.9 2.5-2.2 4.8-3.8 6.6-1.7 1.9-3.7 3.4-6 4.5-2.4 1.1-5 1.7-8 1.7-2.8 0-5.4-.6-7.8-1.7-2.4-1.1-4.4-2.6-6.1-4.5-1.7-1.9-3.1-4.1-4.1-6.6-1-2.5-1.5-5.3-1.5-8.1s.5-5.6 1.5-8.1 2.4-4.8 4.1-6.6c1.7-1.9 3.8-3.4 6.2-4.5 2.2-1.1 4.8-1.7 7.7-1.7M596.2 106.8c1.1-2.9 1.7-6.1 1.7-9.5 0-3.5-.5-6.7-1.6-9.6-1.1-2.9-2.6-5.5-4.6-7.7-2-2.1-4.4-3.8-7.2-5.1-2.8-1.2-5.9-1.8-9.2-1.8-4.3 0-8.4 1.2-12 3.5-3.1 1.9-5.6 4.7-7.4 8.2V74.5h-3.6V143h3.6v-33.1c.7 1.3 1.5 2.5 2.4 3.6 1.4 1.7 3.1 3.1 4.8 4.2 1.8 1.2 3.7 2 5.8 2.6 2.1.6 4.2.9 6.4.9 3.3 0 6.3-.6 9.1-1.8 2.8-1.2 5.2-2.9 7.2-5.1 1.9-2 3.5-4.6 4.6-7.5m-21-30.5c2.9 0 5.6.6 8 1.7 2.4 1.1 4.4 2.7 6 4.6 1.7 1.9 2.9 4.2 3.8 6.7.9 2.5 1.3 5.2 1.3 8s-.5 5.5-1.3 8c-.9 2.5-2.2 4.8-3.8 6.6-1.7 1.9-3.7 3.4-6 4.5-2.4 1.1-5 1.7-8 1.7-2.8 0-5.4-.6-7.8-1.7-2.4-1.1-4.4-2.6-6.1-4.5-1.7-1.9-3.1-4.1-4.1-6.6-1-2.5-1.5-5.3-1.5-8.1s.5-5.6 1.5-8.1 2.4-4.8 4.1-6.6c1.7-1.9 3.8-3.4 6.2-4.5 2.2-1.1 4.8-1.7 7.7-1.7M628.6 116.2l-15.7-41.7h-3.8l17.7 46.1-4.1 11.3c-.4 1-.8 2-1.3 3-.4 1-1 1.8-1.7 2.6-.6.7-1.4 1.3-2.3 1.8-1.3.7-3.1.9-5 .5-.6-.1-1.1-.2-1.5-.4l-.7-.2-1 3.1.6.2c.6.2 1.2.4 2 .5.8.1 1.5.2 2.1.2 2.8 0 5.2-.8 7-2.4 1.8-1.6 3.2-3.8 4.3-6.7l22.2-59.6h-3.8l-15 41.7zM373.5 192.7h45.9v-3.3h-45.9V161h48.1v-3.3H370V227h53.1v-3.3h-49.6zM439.4 153.1h3.5V227h-3.5zM495 187c-1.8-2-4-3.7-6.6-5-2.6-1.3-5.8-1.9-9.3-1.9-3 0-5.9.6-8.5 1.7-2.6 1.2-5 2.8-6.9 4.9-1.9 2.1-3.5 4.6-4.6 7.5-1.1 2.9-1.7 6.1-1.7 9.5 0 3.5.5 6.8 1.6 9.8 1.1 3 2.6 5.6 4.6 7.8 2 2.2 4.4 3.9 7.2 5.1 2.8 1.2 5.9 1.8 9.2 1.8 3.9 0 7.4-.8 10.4-2.3 3-1.5 5.6-3.7 7.9-6.6l.4-.5-2.6-2.2-.4.6c-1.9 2.5-4.2 4.5-6.8 5.8-2.6 1.3-5.6 2-8.9 2-3.3 0-6.1-.6-8.5-1.8-2.4-1.2-4.4-2.9-6-4.8-1.6-2-2.8-4.3-3.5-6.8-.7-2.3-1.1-4.7-1.2-7.1h39.4V202c0-2.7-.4-5.4-1.3-7.9-.9-2.7-2.2-5.1-3.9-7.1m-34.1 14.2c.1-1.4.4-3.1 1-4.9.7-2.1 1.8-4.2 3.2-6.1 1.4-1.9 3.3-3.6 5.6-4.9 2.2-1.3 5-2 8.2-2 2.6 0 5.1.5 7.2 1.3 2.1.9 4 2.2 5.5 3.8 1.5 1.6 2.8 3.6 3.6 5.9.8 2.1 1.3 4.4 1.4 6.9h-35.7zM576.2 186.4c-1.2-1.9-2.9-3.4-5-4.5s-4.7-1.7-7.8-1.7c-4 0-7.7 1.2-10.9 3.6-2.7 2-4.7 4.8-6.1 8.3-.3-1.2-.7-2.3-1.1-3.4-.7-1.7-1.7-3.2-2.9-4.5-1.2-1.3-2.7-2.3-4.5-3-1.8-.7-3.9-1.1-6.3-1.1-1.9 0-3.7.3-5.4.9-1.8.6-3.4 1.5-4.9 2.6-1.5 1.2-2.8 2.6-4 4.2-.6.9-1.2 1.8-1.7 2.9 0-1-.1-2-.1-3.1l-.1-3.1c0-1-.1-1.8-.1-2.4l-.1-.6h-3.5l.1.7c.1.6.1 1.4.2 2.4s.1 2 .1 3l.1 3.1V227h3.5v-22.7c0-3.3.4-6.3 1.3-8.9.8-2.6 2-4.8 3.4-6.5 1.4-1.8 3.1-3.1 5-4.1 1.9-.9 4-1.4 6.2-1.4 2.5 0 4.5.5 6.1 1.6 1.6 1.1 2.9 2.4 3.8 3.9.9 1.6 1.5 3.4 1.9 5.3.3 2 .5 3.9.5 5.6V227h3.5v-22.7c0-3.3.4-6.3 1.3-8.8.9-2.6 2-4.8 3.5-6.5 1.4-1.8 3.1-3.1 5-4.1 1.9-.9 4-1.4 6.2-1.4 2.5 0 4.5.5 6.2 1.6 1.6 1.1 2.9 2.4 3.9 4s1.7 3.4 2.1 5.3c.4 2 .6 3.9.6 5.6v27h3.5v-27.3c0-2.3-.3-4.7-.8-7-.6-2.4-1.5-4.5-2.7-6.3M629.3 187c-1.8-2-4-3.7-6.6-5-2.6-1.3-5.8-1.9-9.3-1.9-3 0-5.9.6-8.5 1.7-2.6 1.2-5 2.8-6.9 4.9-1.9 2.1-3.5 4.6-4.6 7.5-1.1 2.9-1.7 6.1-1.7 9.5 0 3.5.5 6.8 1.6 9.8 1.1 3 2.6 5.6 4.6 7.8 2 2.2 4.4 3.9 7.2 5.1 2.8 1.2 5.9 1.8 9.2 1.8 3.9 0 7.4-.8 10.4-2.3 3-1.5 5.6-3.7 7.9-6.6l.4-.5-2.6-2.2-.4.6c-1.9 2.5-4.2 4.5-6.8 5.8-2.6 1.3-5.6 2-8.9 2-3.3 0-6.1-.6-8.5-1.8-2.4-1.2-4.4-2.9-6-4.8-1.6-2-2.8-4.3-3.5-6.8-.7-2.3-1.1-4.7-1.2-7.1h39.4V202c0-2.7-.4-5.4-1.3-7.9-.8-2.7-2.2-5.1-3.9-7.1m-34.1 14.2c.1-1.4.4-3.1 1-4.9.7-2.1 1.8-4.2 3.2-6.1 1.4-1.9 3.3-3.6 5.6-4.9 2.2-1.3 5-2 8.2-2 2.6 0 5.1.5 7.2 1.3 2.1.9 4 2.2 5.5 3.8 1.5 1.6 2.8 3.6 3.6 5.9.8 2.1 1.3 4.4 1.4 6.9h-35.7zM680.7 186.4c-1.3-1.9-3-3.4-5.1-4.5-2.1-1.1-4.8-1.7-8-1.7-2 0-3.9.3-5.8.9-1.8.6-3.6 1.5-5.2 2.6-1.6 1.2-3 2.6-4.3 4.2-.7.9-1.3 1.9-1.8 2.9 0-1-.1-2.1-.1-3.2l-.1-3.1c0-1-.1-1.8-.1-2.4l-.1-.6h-3.5l.1.7c.1.6.1 1.4.2 2.4s.1 2 .1 3l.1 3.1V227h3.5v-22.7c0-3.3.5-6.3 1.4-8.8.9-2.6 2.1-4.8 3.6-6.5 1.5-1.8 3.3-3.1 5.3-4.1 2-.9 4.3-1.4 6.6-1.4 2.6 0 4.8.5 6.4 1.6 1.7 1.1 3.1 2.4 4.1 4 1 1.6 1.7 3.4 2.1 5.3.4 2 .6 3.9.6 5.6v27h3.5v-27.3c0-2.3-.3-4.7-.8-7-.5-2.4-1.4-4.5-2.7-6.3M718.2 224.1c-1.4.5-2.9.8-4.6.8-2.2 0-4.1-.6-5.4-1.8-1.3-1.2-2-3.2-2-6v-32.5h12.9v-3.2h-12.9v-12.9h-3.5v12.9h-9.5v3.2h9.6v32.5c0 3.1.8 5.7 2.3 7.7 1.6 2.1 4.3 3.2 7.9 3.2 1 0 2-.1 3.1-.3 1.1-.2 2-.5 2.8-.8l.5-.2-.5-3-.7.4zM759.7 209.5c-.8-1.4-1.8-2.6-3.2-3.6-1.3-.9-2.8-1.7-4.5-2.3-1.6-.6-3.4-1.1-5.1-1.6-1.8-.4-3.5-.9-5-1.4-1.5-.5-2.7-1-3.8-1.7-1-.6-1.8-1.5-2.3-2.5-.6-1-.8-2.5-.8-4.3 0-1.6.3-3 1-4.1.7-1.1 1.5-2 2.6-2.7 1-.7 2.2-1.2 3.5-1.5 1.3-.3 2.5-.5 3.7-.5 2.5 0 4.7.4 6.4 1.3 1.8.9 3.4 2.2 4.8 4.1l.4.5 3-1.7-.4-.6c-3.1-4.5-7.9-6.7-14.1-6.7-1.7 0-3.4.3-5.1.7-1.7.5-3.2 1.2-4.6 2.2-1.4 1-2.5 2.2-3.3 3.7-.8 1.5-1.2 3.3-1.2 5.3s.3 3.7 1 5.1c.6 1.4 1.5 2.5 2.7 3.4 1.1.9 2.4 1.7 3.9 2.2 1.4.5 3 1.1 4.6 1.5 1.5.4 3 .8 4.7 1.3 1.6.5 3.2 1.1 4.5 1.8 1.3.7 2.4 1.7 3.3 2.9.8 1.2 1.3 2.7 1.3 4.6 0 1.6-.3 3-1 4.3-.7 1.3-1.6 2.3-2.7 3.1-1.1.8-2.4 1.5-3.7 1.9-1.4.4-2.7.6-4.1.6-5.8 0-10.2-2.1-13.3-6.4l-.4-.5-2.9 1.9.4.6c1.8 2.5 4.1 4.4 6.8 5.7 2.7 1.3 5.8 1.9 9.2 1.9 2 0 4-.3 5.8-.9 1.8-.6 3.4-1.5 4.8-2.6s2.5-2.6 3.3-4.2c.8-1.7 1.2-3.5 1.2-5.6-.3-2-.7-3.8-1.4-5.2"/></g><path fill="#5FB5DB" d="M376.5 268.3l4.4-10.9h2.1v13.2h-1.4v-11.5l-4.8 11.5h-.7l-4.7-11.5h-.1v11.5H370v-13.2h2zM400.4 264.9c0-.7-.2-1.3-.6-1.7-.4-.4-1-.6-1.7-.6-.5 0-1 .1-1.4.3-.4.2-.8.4-1.1.7l-.7-.8c.4-.4.8-.7 1.4-.9.6-.2 1.3-.4 2-.4.5 0 .9.1 1.3.2s.8.3 1.1.6c.3.3.5.6.7 1 .2.4.3.9.3 1.4v4.8c0 .4.1.7.1.9h-1.1c0-.2-.1-.4-.1-.7v-.7c-.4.6-.8 1-1.3 1.3-.5.3-1.1.4-1.8.4-.3 0-.7 0-1-.1-.4-.1-.7-.2-1-.5-.3-.2-.5-.5-.7-.8-.2-.3-.3-.7-.3-1.2 0-.7.2-1.2.5-1.6.3-.4.8-.7 1.4-.9.6-.2 1.2-.3 2-.4.7-.1 1.5-.1 2.3-.1v-.2zm-.3 1.3c-.5 0-1 0-1.6.1-.5 0-1 .1-1.4.3-.4.1-.8.3-1 .6-.3.2-.4.6-.4 1 0 .3.1.6.2.8.1.2.3.4.5.5.2.1.4.2.7.3.2.1.5.1.7.1.4 0 .8-.1 1.2-.2l.9-.6c.2-.3.4-.6.5-.9.1-.3.2-.7.2-1.1v-.6h-.5zM415.4 265.8l4-3.9h1.9l-4.4 3.9 4.8 4.8h-1.9l-4.4-4.6v4.6h-1.3v-14.1h1.3zM440.4 265.9v.6h-7.2c0 .4.1.8.3 1.2.2.4.4.7.7 1 .3.3.6.5 1 .7.4.2.8.3 1.2.3.7 0 1.2-.2 1.7-.5s.8-.7 1.1-1l.9.7c-.5.7-1.1 1.1-1.7 1.4-.6.3-1.3.4-2 .4-.6 0-1.2-.1-1.8-.3-.6-.2-1-.5-1.4-1-.4-.4-.7-.9-.9-1.4-.2-.6-.3-1.2-.3-1.8 0-.7.1-1.3.3-1.8.2-.6.5-1 .9-1.4.4-.4.9-.7 1.4-1 .5-.2 1.1-.3 1.7-.3.7 0 1.3.1 1.8.3.5.2 1 .5 1.3.9.3.4.6.8.8 1.4.1.5.2 1.1.2 1.6m-1.3-.4c0-.8-.3-1.5-.8-2s-1.2-.8-2.1-.8c-.4 0-.8.1-1.2.2-.4.2-.7.4-.9.6-.3.3-.5.6-.7.9-.2.3-.3.7-.3 1.1h6zM473.3 270.6h-1.4v-12h-4.4v-1.2h10.2v1.2h-4.4zM489 263.3c.2-.5.6-.9 1.2-1.2.5-.3 1.1-.4 1.7-.4 1.1 0 1.9.3 2.5 1 .6.7.8 1.5.8 2.6v5.3h-1.3v-4.8c0-.5 0-.9-.1-1.2-.1-.4-.2-.7-.4-1-.2-.3-.4-.5-.7-.6-.3-.1-.7-.2-1.1-.2-.3 0-.7.1-1 .2-.3.1-.6.3-.8.6-.2.3-.4.6-.6 1.1-.1.4-.2.9-.2 1.5v4.5h-1.3v-14h1.3v6.6zM513.9 265.9v.6h-7.2c0 .4.1.8.3 1.2.2.4.4.7.7 1 .3.3.6.5 1 .7.4.2.8.3 1.2.3.7 0 1.2-.2 1.7-.5s.8-.7 1.1-1l.9.7c-.5.7-1.1 1.1-1.7 1.4-.6.3-1.3.4-2 .4-.6 0-1.2-.1-1.8-.3-.6-.2-1-.5-1.4-1-.4-.4-.7-.9-.9-1.4-.2-.6-.3-1.2-.3-1.8 0-.7.1-1.3.3-1.8.2-.6.5-1 .9-1.4.4-.4.9-.7 1.4-1 .5-.2 1.1-.3 1.7-.3.7 0 1.3.1 1.8.3.5.2 1 .5 1.3.9.3.4.6.8.8 1.4.2.5.2 1.1.2 1.6m-1.2-.4c0-.8-.3-1.5-.8-2s-1.2-.8-2.1-.8c-.4 0-.8.1-1.2.2-.4.2-.7.4-.9.6-.3.3-.5.6-.7.9-.2.3-.3.7-.3 1.1h6zM550.3 268.7h.1l3.3-11.3h1.5l3.3 11.3h.1l3.2-11.3h1.4l-3.9 13.2h-1.5l-3.3-11.3h-.1l-3.3 11.3h-1.5l-3.9-13.2h1.4zM579 266.2c0 .7-.1 1.3-.3 1.8-.2.6-.5 1-1 1.4-.4.4-.9.7-1.5 1-.6.2-1.2.3-1.9.3s-1.3-.1-1.9-.3c-.6-.2-1.1-.5-1.5-1-.4-.4-.7-.9-1-1.4-.2-.6-.3-1.2-.3-1.8 0-.7.1-1.3.3-1.8.2-.6.5-1 1-1.4.4-.4.9-.7 1.5-1 .6-.2 1.2-.3 1.9-.3s1.3.1 1.9.3c.6.2 1.1.5 1.5 1 .4.4.7.9 1 1.4.2.5.3 1.2.3 1.8m-1.4 0c0-.5-.1-.9-.2-1.4-.2-.4-.4-.8-.7-1.1-.3-.3-.6-.6-1-.8-.4-.2-.9-.3-1.4-.3-.5 0-1 .1-1.4.3-.4.2-.7.4-1 .8-.3.3-.5.7-.7 1.1-.2.4-.2.9-.2 1.4 0 .5.1.9.2 1.4.2.4.4.8.7 1.1.3.3.6.6 1 .7.4.2.9.3 1.4.3.5 0 1-.1 1.4-.3.4-.2.8-.4 1-.7.3-.3.5-.7.7-1.1.2-.5.2-.9.2-1.4M589.1 262.9c0-.4 0-.7-.1-1h1.2c0 .2 0 .5.1.8v.7c.2-.5.6-.9 1.1-1.2.5-.3 1.1-.5 1.7-.5h.4c.1 0 .3 0 .4.1l-.2 1.2c-.1 0-.2 0-.4-.1h-.5c-.3 0-.7.1-1 .2-.3.1-.6.3-.8.6-.2.3-.4.6-.6 1-.1.4-.2.9-.2 1.5v4.4h-1.3v-6.8c.2-.3.2-.6.2-.9M604.4 256.5h1.3v14h-1.3zM623.2 269.1c-.4.6-.9 1-1.4 1.3-.6.3-1.2.4-1.8.4-.7 0-1.3-.1-1.8-.4-.5-.2-1-.6-1.4-1-.4-.4-.7-.9-.9-1.4-.2-.6-.3-1.2-.3-1.8 0-.6.1-1.2.3-1.8.2-.6.5-1 .9-1.4.4-.4.9-.7 1.4-1 .6-.2 1.2-.4 1.8-.4.6 0 1.2.1 1.8.4.6.3 1.1.7 1.4 1.3v-6.8h1.3v14h-1.3v-1.4zm-6.4-2.9c0 .5.1.9.2 1.4.1.4.4.8.6 1.1.3.3.6.6 1 .7.4.2.9.3 1.4.3.5 0 .9-.1 1.3-.3.4-.2.8-.4 1.1-.7.3-.3.5-.7.7-1.1.2-.4.3-.9.3-1.4 0-.5-.1-1-.3-1.4-.2-.4-.4-.8-.7-1.1-.3-.3-.7-.6-1.1-.7-.4-.2-.9-.3-1.3-.3-.5 0-1 .1-1.4.3-.4.2-.8.4-1 .8-.3.3-.5.7-.6 1.1-.2.4-.2.8-.2 1.3M661.3 257.4h1.4v5.7h7.1v-5.7h1.4v13.2h-1.4v-6.3h-7.1v6.3h-1.4zM687.5 264.9c0-.7-.2-1.3-.6-1.7-.4-.4-1-.6-1.7-.6-.5 0-1 .1-1.4.3-.4.2-.8.4-1.1.7l-.7-.8c.4-.4.8-.7 1.4-.9.6-.2 1.3-.4 2-.4.5 0 .9.1 1.3.2s.8.3 1.1.6c.3.3.6.6.7 1 .2.4.3.9.3 1.4v4.8c0 .4.1.7.1.9h-1.1c0-.2-.1-.4-.1-.7v-.7c-.4.6-.8 1-1.3 1.3-.5.3-1.1.4-1.8.4-.3 0-.7 0-1-.1-.4-.1-.7-.2-1-.5-.3-.2-.5-.5-.7-.8-.2-.3-.3-.7-.3-1.2 0-.7.2-1.2.5-1.6.3-.4.8-.7 1.4-.9.6-.2 1.2-.3 2-.4.7-.1 1.5-.1 2.3-.1v-.2zm-.4 1.3c-.5 0-1 0-1.6.1-.5 0-1 .1-1.4.3-.4.1-.8.3-1 .6-.3.2-.4.6-.4 1 0 .3.1.6.2.8.1.2.3.4.5.5.2.1.4.2.7.3.2.1.5.1.7.1.4 0 .8-.1 1.2-.2l.9-.6c.2-.3.4-.6.5-.9.1-.3.2-.7.2-1.1v-.6h-.5zM701 275h-1.3v-13.1h1.3v1.5h.1c.4-.6.8-1 1.4-1.3.6-.3 1.2-.4 1.8-.4.7 0 1.3.1 1.8.4.6.2 1 .6 1.4 1 .4.4.7.9.9 1.4.2.6.3 1.2.3 1.8 0 .6-.1 1.2-.3 1.8-.2.6-.5 1-.9 1.4-.4.4-.9.7-1.4 1-.6.2-1.2.4-1.8.4-.6 0-1.2-.1-1.8-.4-.6-.3-1.1-.7-1.4-1.3h-.1v5.8zm6.5-8.8c0-.5-.1-.9-.2-1.4-.1-.4-.4-.8-.6-1.1-.3-.3-.6-.6-1-.8-.4-.2-.9-.3-1.4-.3-.5 0-.9.1-1.3.3-.4.2-.8.4-1.1.7-.3.3-.5.7-.7 1.1-.2.4-.3.9-.3 1.4 0 .5.1 1 .3 1.4.2.4.4.8.7 1.1.3.3.6.6 1.1.7.4.2.9.3 1.3.3.5 0 1-.1 1.4-.3.4-.2.8-.4 1-.7.3-.3.5-.7.6-1.1.1-.4.2-.8.2-1.3M720.3 275H719v-13.1h1.3v1.5h.1c.4-.6.8-1 1.4-1.3.6-.3 1.2-.4 1.8-.4.7 0 1.3.1 1.8.4.5.2 1 .6 1.4 1 .4.4.7.9.9 1.4.2.6.3 1.2.3 1.8 0 .6-.1 1.2-.3 1.8-.2.6-.5 1-.9 1.4-.4.4-.9.7-1.4 1-.6.2-1.2.4-1.8.4-.6 0-1.2-.1-1.8-.4-.6-.3-1.1-.7-1.4-1.3h-.1v5.8zm6.5-8.8c0-.5-.1-.9-.2-1.4-.1-.4-.4-.8-.6-1.1-.3-.3-.6-.6-1-.8-.4-.2-.9-.3-1.4-.3-.5 0-.9.1-1.3.3-.4.2-.8.4-1.1.7s-.5.7-.7 1.1c-.2.4-.3.9-.3 1.4 0 .5.1 1 .3 1.4.2.4.4.8.7 1.1.3.3.7.6 1.1.7.4.2.9.3 1.3.3.5 0 1-.1 1.4-.3.4-.2.8-.4 1-.7.3-.3.5-.7.6-1.1.1-.4.2-.8.2-1.3M742.2 269.2l2.7-7.3h1.4l-4.3 10.9c-.3.7-.6 1.2-1 1.6-.4.4-1 .6-1.7.6-.4 0-.8 0-1.1-.1l.1-1.2c.3.1.6.1.9.1.4 0 .8-.1 1-.4.2-.3.5-.6.6-1.1l.7-1.8-3.7-8.7h1.4l3 7.4zM758.3 272.5c0 .3-.1.5-.3.8-.2.2-.5.3-.8.3-.3 0-.6-.1-.8-.3-.2-.2-.3-.5-.3-.8s.1-.5.3-.8c.2-.2.5-.3.8-.3.3 0 .6.1.8.3.2.3.3.5.3.8m-.7-2.9h-.7l-.4-12h1.4l-.3 12z"/><path fill="#84C24C" d="M117.8 153.1h71.5l4.6 4.6c5 5 9.6 7.3 13.4 7.1 0 .8-.1 1.6-.1 2.5v13L169 218.6c-12.5 12.5-30.8 10.8-40.8-3.8l-24.3-35.4c-10-14.4-3.7-26.3 13.9-26.3"/><path fill="#5FB5DB" d="M216.6 63.7v71.5l-4.6 4.6c-5 5-7.3 9.6-7.1 13.4-.8 0-1.6-.1-2.5-.1h-13l-38.3-38.3c-12.5-12.5-10.8-30.8 3.8-40.8l35.4-24.3c14.4-9.9 26.3-3.7 26.3 14"/><path fill="#FFDB3B" d="M219 162.4c.8 0 1.6.1 2.5.1h13l38.3 38.3c12.5 12.5 10.8 30.8-3.8 40.8l-35.4 24.3c-14.5 10-26.4 3.7-26.4-13.9v-71.5l4.6-4.6c5-5.1 7.3-9.7 7.2-13.5"/><path fill="#EC6867" d="M216.5 150.8c0-.8.1-1.6.1-2.5v-13L254.9 97c12.5-12.5 30.8-10.8 40.8 3.8L320 136c10 14.5 3.7 26.4-13.9 26.4h-71.5l-4.6-4.6c-5.1-4.9-9.7-7.2-13.5-7"/><path fill="#FFF" d="M204.9 153.2c2.1.1 4 .4 5.6.9-1 1.3-1.8 3.1-2.4 5.2-2-1.7-3.1-3.7-3.2-6.1"/><path fill="#F5EC69" d="M207.3 164.8c2.4-.1 4.5-1.2 6-3.3 1.6.4 3.5.7 5.6.8.1 3.8-2.2 8.4-7.1 13.4l-4.6 4.6v-13c0-.9.1-1.7.1-2.5"/><path fill="#FFE8C7" d="M219 162.4c-.1-2.4-1.2-4.5-3.3-6 .4-1.6.7-3.5.8-5.6 3.8-.1 8.4 2.2 13.4 7.1l4.6 4.6h-13c-.9 0-1.7-.1-2.5-.1"/><path fill="#FFF" d="M219 162.4c-2.1-.1-4-.4-5.6-.8 1-1.3 1.8-3.1 2.4-5.2 2 1.5 3.1 3.6 3.2 6M213.3 161.5c-1.6 2.1-3.6 3.2-6 3.3.1-2.1.4-4 .8-5.6 1.4 1 3.1 1.8 5.2 2.3"/><path fill="#B1DAE7" d="M204.9 153.2c.1 2.4 1.2 4.5 3.3 6-.4 1.6-.7 3.5-.8 5.6-3.8.1-8.4-2.2-13.4-7.1l-4.6-4.6h13c.9 0 1.7 0 2.5.1"/><path fill="#EAD9ED" d="M216.6 148.3c0 .9 0 1.7-.1 2.5-2.4.1-4.5 1.2-6 3.3-1.6-.4-3.5-.7-5.6-.9-.1-3.8 2.2-8.4 7.1-13.4l4.6-4.6v13.1z"/><path fill="#FFF" d="M216.5 150.8c-.1 2.1-.4 4-.8 5.6-1.3-1-3.1-1.8-5.2-2.4 1.6-2 3.6-3.1 6-3.2"/><path fill="#FFF" d="M210.5 154c2.1.6 3.8 1.4 5.2 2.4-.6 2.1-1.4 3.8-2.4 5.2-2.1-.6-3.8-1.4-5.2-2.4.6-2.1 1.4-3.9 2.4-5.2"/></svg>